<svg width="23" height="20" viewBox="0 0 23 20" fill="none" xmlns="http://www.w3.org/2000/svg">
<g clip-path="url(#clip0)">
<path d="M9.26469 14.61V7.9425H8.35475C7.70305 8.24459 7.07321 8.58105 6.46875 8.95V9.81875C7.00781 9.4975 7.86169 9.04375 8.27713 8.8475H8.29438V14.61H9.26469V14.61ZM10.9724 12.9788C11.04 13.7788 11.8263 14.7363 13.4205 14.7363C15.2289 14.7363 16.2955 13.4038 16.2955 11.1475C16.2955 8.73 15.1728 7.8125 13.4881 7.8125C12.1569 7.8125 10.9049 8.6525 10.9049 10.0738C10.9049 11.5238 12.0894 12.2863 13.3141 12.2863C14.3865 12.2863 15.0823 11.8162 15.3022 11.2987H15.341C15.3353 12.9437 14.6783 14.0038 13.4651 14.0038C12.5106 14.0038 12.0161 13.4413 11.9557 12.9788H10.9724V12.9788ZM15.2174 10.0825C15.2174 10.9525 14.4138 11.5575 13.5154 11.5575C12.6514 11.5575 11.8709 11.0787 11.8709 10.0575C11.8709 9.02875 12.7075 8.545 13.5499 8.545C14.4598 8.545 15.2174 9.0425 15.2174 10.0825Z" fill="black"/>
<path fill-rule="evenodd" clip-rule="evenodd" d="M1.4375 5V17.5C1.4375 17.8315 1.58895 18.1495 1.85853 18.3839C2.12812 18.6183 2.49375 18.75 2.875 18.75H20.125C20.5062 18.75 20.8719 18.6183 21.1415 18.3839C21.411 18.1495 21.5625 17.8315 21.5625 17.5V5H1.4375ZM2.875 1.25C2.1125 1.25 1.38124 1.51339 0.842068 1.98223C0.302901 2.45107 0 3.08696 0 3.75L0 17.5C0 18.163 0.302901 18.7989 0.842068 19.2678C1.38124 19.7366 2.1125 20 2.875 20H20.125C20.8875 20 21.6188 19.7366 22.1579 19.2678C22.6971 18.7989 23 18.163 23 17.5V3.75C23 3.08696 22.6971 2.45107 22.1579 1.98223C21.6188 1.51339 20.8875 1.25 20.125 1.25H2.875Z" fill="black"/>
<path fill-rule="evenodd" clip-rule="evenodd" d="M5.03125 0C5.22187 0 5.40469 0.065848 5.53948 0.183058C5.67427 0.300269 5.75 0.45924 5.75 0.625V1.25C5.75 1.41576 5.67427 1.57473 5.53948 1.69194C5.40469 1.80915 5.22187 1.875 5.03125 1.875C4.84063 1.875 4.65781 1.80915 4.52302 1.69194C4.38823 1.57473 4.3125 1.41576 4.3125 1.25V0.625C4.3125 0.45924 4.38823 0.300269 4.52302 0.183058C4.65781 0.065848 4.84063 0 5.03125 0V0ZM17.9688 0C18.1594 0 18.3422 0.065848 18.477 0.183058C18.6118 0.300269 18.6875 0.45924 18.6875 0.625V1.25C18.6875 1.41576 18.6118 1.57473 18.477 1.69194C18.3422 1.80915 18.1594 1.875 17.9688 1.875C17.7781 1.875 17.5953 1.80915 17.4605 1.69194C17.3257 1.57473 17.25 1.41576 17.25 1.25V0.625C17.25 0.45924 17.3257 0.300269 17.4605 0.183058C17.5953 0.065848 17.7781 0 17.9688 0V0Z" fill="black"/>
</g>
<defs>
<clipPath id="clip0">
<rect width="23" height="20" fill="white"/>
</clipPath>
</defs>
</svg>
