<svg
                  width="19"
                  height="24"
                  viewBox="0 0 19 24"
                  fill="none"
                  xmlns="http://www.w3.org/2000/svg"
                >
                  <path
                    d="M5.90625 8.59375C6.09687 8.59375 6.27969 8.67606 6.41448 8.82257C6.54927 8.96909 6.625 9.1678 6.625 9.375V18.75C6.625 18.9572 6.54927 19.1559 6.41448 19.3024C6.27969 19.4489 6.09687 19.5312 5.90625 19.5312C5.71563 19.5312 5.53281 19.4489 5.39802 19.3024C5.26323 19.1559 5.1875 18.9572 5.1875 18.75V9.375C5.1875 9.1678 5.26323 8.96909 5.39802 8.82257C5.53281 8.67606 5.71563 8.59375 5.90625 8.59375ZM9.5 8.59375C9.69062 8.59375 9.87344 8.67606 10.0082 8.82257C10.143 8.96909 10.2188 9.1678 10.2188 9.375V18.75C10.2188 18.9572 10.143 19.1559 10.0082 19.3024C9.87344 19.4489 9.69062 19.5312 9.5 19.5312C9.30938 19.5312 9.12656 19.4489 8.99177 19.3024C8.85698 19.1559 8.78125 18.9572 8.78125 18.75V9.375C8.78125 9.1678 8.85698 8.96909 8.99177 8.82257C9.12656 8.67606 9.30938 8.59375 9.5 8.59375ZM13.8125 9.375C13.8125 9.1678 13.7368 8.96909 13.602 8.82257C13.4672 8.67606 13.2844 8.59375 13.0938 8.59375C12.9031 8.59375 12.7203 8.67606 12.5855 8.82257C12.4507 8.96909 12.375 9.1678 12.375 9.375V18.75C12.375 18.9572 12.4507 19.1559 12.5855 19.3024C12.7203 19.4489 12.9031 19.5312 13.0938 19.5312C13.2844 19.5312 13.4672 19.4489 13.602 19.3024C13.7368 19.1559 13.8125 18.9572 13.8125 18.75V9.375Z"
                    fill="black"
                  />
                  <path
                    fill-rule="evenodd"
                    clip-rule="evenodd"
                    d="M18.8438 4.6875C18.8438 5.1019 18.6923 5.49933 18.4227 5.79235C18.1531 6.08538 17.7875 6.25 17.4062 6.25H16.6875V20.3125C16.6875 21.1413 16.3846 21.9362 15.8454 22.5222C15.3063 23.1083 14.575 23.4375 13.8125 23.4375H5.1875C4.425 23.4375 3.69373 23.1083 3.15457 22.5222C2.6154 21.9362 2.3125 21.1413 2.3125 20.3125V6.25H1.59375C1.2125 6.25 0.846867 6.08538 0.577284 5.79235C0.3077 5.49933 0.15625 5.1019 0.15625 4.6875V3.125C0.15625 2.7106 0.3077 2.31317 0.577284 2.02015C0.846867 1.72712 1.2125 1.5625 1.59375 1.5625H6.625C6.625 1.1481 6.77645 0.750671 7.04603 0.457646C7.31562 0.16462 7.68125 0 8.0625 0L10.9375 0C11.3187 0 11.6844 0.16462 11.954 0.457646C12.2235 0.750671 12.375 1.1481 12.375 1.5625H17.4062C17.7875 1.5625 18.1531 1.72712 18.4227 2.02015C18.6923 2.31317 18.8438 2.7106 18.8438 3.125V4.6875ZM3.91963 6.25L3.75 6.34219V20.3125C3.75 20.7269 3.90145 21.1243 4.17103 21.4174C4.44062 21.7104 4.80625 21.875 5.1875 21.875H13.8125C14.1937 21.875 14.5594 21.7104 14.829 21.4174C15.0985 21.1243 15.25 20.7269 15.25 20.3125V6.34219L15.0804 6.25H3.91963ZM1.59375 4.6875V3.125H17.4062V4.6875H1.59375Z"
                    fill="black"
                  />
                </svg>