<svg width="25" height="23" viewBox="0 0 25 23" fill="none" xmlns="http://www.w3.org/2000/svg">
<path d="M21.0907 1.1428L21.3235 0.928615C21.4987 0.767495 21.7068 0.639706 21.9357 0.552545C22.1646 0.465384 22.4099 0.420557 22.6577 0.420624C22.9054 0.420691 23.1507 0.46565 23.3796 0.552934C23.6084 0.640219 23.8164 0.768119 23.9915 0.929333C24.1666 1.09055 24.3055 1.28192 24.4003 1.49252C24.495 1.70312 24.5437 1.92882 24.5436 2.15675C24.5436 2.38467 24.4947 2.61035 24.3998 2.8209C24.305 3.03145 24.1659 3.22274 23.9907 3.38386L23.7579 3.59661C24.1561 4.00754 24.3685 4.54305 24.3513 5.09338C24.3342 5.64371 24.0889 6.16716 23.6657 6.55643L7.58445 21.3526C7.48392 21.4446 7.35807 21.5097 7.22039 21.5409L0.970391 22.9784C0.839598 23.0084 0.702603 23.0067 0.572724 22.9736C0.442844 22.9404 0.324498 22.8769 0.229189 22.7892C0.13388 22.7015 0.0648508 22.5926 0.0288111 22.4732C-0.00722859 22.3537 -0.00905265 22.2276 0.0235163 22.1073L1.58602 16.3573C1.6202 16.2311 1.69094 16.1159 1.7907 16.0238L16.8563 2.16343C16.7057 2.06586 16.5223 2.02043 16.3388 2.03516C16.1552 2.04989 15.9832 2.12384 15.8532 2.24393L10.7095 6.97761C10.6368 7.04444 10.5506 7.09745 10.4557 7.13362C10.3608 7.16978 10.2591 7.1884 10.1563 7.1884C10.0536 7.1884 9.95188 7.16978 9.85698 7.13362C9.76207 7.09745 9.67584 7.04444 9.6032 6.97761C9.53057 6.91079 9.47295 6.83145 9.43364 6.74414C9.39432 6.65683 9.37409 6.56325 9.37409 6.46874C9.37409 6.37423 9.39432 6.28065 9.43364 6.19334C9.47295 6.10603 9.53057 6.02669 9.6032 5.95986L14.7501 1.22761C15.1735 0.838074 15.7429 0.612394 16.3414 0.59689C16.94 0.581386 17.5223 0.777233 17.9688 1.14424C18.3981 0.791245 18.9537 0.595994 19.5295 0.595729C20.1053 0.595464 20.661 0.790203 21.0907 1.1428ZM20.0845 2.24393C19.9379 2.10918 19.7393 2.03349 19.5321 2.03349C19.3249 2.03349 19.1263 2.10918 18.9798 2.24393L3.04695 16.8992L1.8532 21.2937L6.62977 20.1954L22.5626 5.54011C22.6353 5.47335 22.6931 5.39403 22.7324 5.30671C22.7718 5.21939 22.7921 5.12578 22.7921 5.03124C22.7921 4.9367 22.7718 4.84309 22.7324 4.75577C22.6931 4.66845 22.6353 4.58913 22.5626 4.52236L20.086 2.24393H20.0845Z" fill="black"/>
</svg>
