<svg width="27" height="20" viewBox="0 0 27 20" fill="none" xmlns="http://www.w3.org/2000/svg">
<path d="M5.625 0H1.125C0.504 0 0 0.373333 0 0.833333V4.16667C0 4.62667 0.504 5 1.125 5H5.625C6.246 5 6.75 4.62667 6.75 4.16667V0.833333C6.75 0.373333 6.246 0 5.625 0Z" fill="#A4A4A5"/>
<path d="M5.625 7.5H1.125C0.504 7.5 0 7.87333 0 8.33333V11.6667C0 12.1267 0.504 12.5 1.125 12.5H5.625C6.246 12.5 6.75 12.1267 6.75 11.6667V8.33333C6.75 7.87333 6.246 7.5 5.625 7.5Z" fill="#A4A4A5"/>
<path d="M5.625 15H1.125C0.504 15 0 15.3733 0 15.8333V19.1667C0 19.6267 0.504 20 1.125 20H5.625C6.246 20 6.75 19.6267 6.75 19.1667V15.8333C6.75 15.3733 6.246 15 5.625 15Z" fill="#A4A4A5"/>
<path d="M15.75 0H11.25C10.629 0 10.125 0.373333 10.125 0.833333V4.16667C10.125 4.62667 10.629 5 11.25 5H15.75C16.371 5 16.875 4.62667 16.875 4.16667V0.833333C16.875 0.373333 16.371 0 15.75 0Z" fill="#A4A4A5"/>
<path d="M15.75 7.5H11.25C10.629 7.5 10.125 7.87333 10.125 8.33333V11.6667C10.125 12.1267 10.629 12.5 11.25 12.5H15.75C16.371 12.5 16.875 12.1267 16.875 11.6667V8.33333C16.875 7.87333 16.371 7.5 15.75 7.5Z" fill="#A4A4A5"/>
<path d="M15.75 15H11.25C10.629 15 10.125 15.3733 10.125 15.8333V19.1667C10.125 19.6267 10.629 20 11.25 20H15.75C16.371 20 16.875 19.6267 16.875 19.1667V15.8333C16.875 15.3733 16.371 15 15.75 15Z" fill="#A4A4A5"/>
<path d="M25.875 0H21.375C20.754 0 20.25 0.373333 20.25 0.833333V4.16667C20.25 4.62667 20.754 5 21.375 5H25.875C26.496 5 27 4.62667 27 4.16667V0.833333C27 0.373333 26.496 0 25.875 0Z" fill="#A4A4A5"/>
<path d="M25.875 7.5H21.375C20.754 7.5 20.25 7.87333 20.25 8.33333V11.6667C20.25 12.1267 20.754 12.5 21.375 12.5H25.875C26.496 12.5 27 12.1267 27 11.6667V8.33333C27 7.87333 26.496 7.5 25.875 7.5Z" fill="#A4A4A5"/>
<path d="M25.875 15H21.375C20.754 15 20.25 15.3733 20.25 15.8333V19.1667C20.25 19.6267 20.754 20 21.375 20H25.875C26.496 20 27 19.6267 27 19.1667V15.8333C27 15.3733 26.496 15 25.875 15Z" fill="#A4A4A5"/>
</svg>
