<svg width="27" height="20" viewBox="0 0 27 20" fill="none" xmlns="http://www.w3.org/2000/svg">
<path d="M24.2464 0H2.45743C1.10242 0 0 1.10237 0 2.4591C0 3.81411 1.10242 4.91653 2.45743 4.91653H24.2464C25.6014 4.91653 26.7038 3.81411 26.7038 2.4591C26.7038 1.10237 25.6014 0 24.2464 0Z" fill="#A4A4A5"/>
<path d="M24.2464 7.54175H2.45743C1.10242 7.54175 0 8.64411 0 10.0008C0 11.3559 1.10242 12.4583 2.45743 12.4583H24.2464C25.6014 12.4583 26.7038 11.3559 26.7038 10.0008C26.7038 8.64411 25.6014 7.54175 24.2464 7.54175Z" fill="#A4A4A5"/>
<path d="M24.2464 15.0835H2.45743C1.10242 15.0835 0 16.1859 0 17.5426C0 18.8976 1.10242 20 2.45743 20H24.2464C25.6014 20 26.7038 18.8976 26.7038 17.5426C26.7038 16.1859 25.6014 15.0835 24.2464 15.0835Z" fill="#A4A4A5"/>
</svg>
