<svg width="41" height="36" viewBox="0 0 41 36" fill="none" xmlns="http://www.w3.org/2000/svg">
<path d="M5.34783 5.14286V0H8.91304V5.14286H14.2609V8.57143H8.91304V13.7143H5.34783V8.57143H0V5.14286H5.34783ZM10.6957 15.4286V10.2857H16.0435V5.14286H28.5217L31.7839 8.57143H41V36H5.34783V15.4286H10.6957ZM23.1739 30.8571C28.0939 30.8571 32.087 27.0171 32.087 22.2857C32.087 17.5543 28.0939 13.7143 23.1739 13.7143C18.2539 13.7143 14.2609 17.5543 14.2609 22.2857C14.2609 27.0171 18.2539 30.8571 23.1739 30.8571ZM17.8261 22.2857C17.8261 25.1314 20.2148 27.4286 23.1739 27.4286C26.133 27.4286 28.5217 25.1314 28.5217 22.2857C28.5217 19.44 26.133 17.1429 23.1739 17.1429C20.2148 17.1429 17.8261 19.44 17.8261 22.2857Z" fill="black"/>
</svg>
