<svg width="100" height="100" viewBox="0 0 512 512" fill="none" xmlns="http://www.w3.org/2000/svg">
<path fill-rule="evenodd" clip-rule="evenodd" d="M238.022 304.945C246.122 309.722 255.935 312.111 267.462 312.111C272.862 312.111 277.691 311.436 281.949 310.086C286.207 308.84 289.945 307.334 293.164 305.568C296.384 303.803 298.98 302.142 300.953 300.584L304.536 310.086H318.866V282.841H357.944V289.524C357.944 292.743 357.529 294.872 356.698 295.911C355.971 296.845 354.673 297.365 352.804 297.468L344.548 298.091V309.93H369.671V323.507H142.503V283.222L163.25 313.547H190.563V282.841H218.784C219.107 283.571 219.444 284.293 219.796 285.007C223.95 293.418 230.025 300.065 238.022 304.945ZM249.775 282.841C249.854 282.94 249.935 283.039 250.016 283.138C252.924 286.564 256.402 289.161 260.453 290.926C264.606 292.691 269.176 293.574 274.16 293.574C277.276 293.574 280.028 293.366 282.416 292.951C284.908 292.536 287.141 291.965 289.114 291.238C291.191 290.407 293.009 289.42 294.566 288.278V282.841H318.866V275.661C318.866 272.753 319.23 270.78 319.957 269.741C320.684 268.599 322.034 267.924 324.007 267.716L330.549 267.249V255.255H280.547V267.249L288.959 267.56C291.451 267.664 293.009 268.339 293.632 269.586C294.255 270.832 294.566 272.701 294.566 275.193V282.841H249.775ZM249.775 282.841C246.984 279.363 244.832 275.101 243.318 270.053C241.76 264.86 240.981 258.785 240.981 251.828C240.981 245.908 241.656 240.612 243.006 235.939C244.46 231.266 246.485 227.372 249.081 224.256C251.781 221.037 255.052 218.597 258.895 216.935C262.841 215.274 267.306 214.443 272.291 214.443C277.691 214.443 282.416 215.222 286.466 216.779C290.62 218.337 294.203 220.881 297.214 224.412C300.226 227.943 302.874 232.72 305.159 238.743L318.243 236.095L311.701 198.71H301.264L299.395 206.966C295.76 204.37 291.659 202.345 287.089 200.891C282.52 199.437 276.964 198.71 270.422 198.71C261.906 198.71 254.17 200.06 247.212 202.76C240.254 205.356 234.231 209.147 229.143 214.131C224.158 219.116 220.316 225.139 217.616 232.201C214.916 239.262 213.566 247.258 213.566 256.189C213.566 266.073 215.305 274.957 218.784 282.841H249.775ZM190.563 282.841V221.392C190.563 218.374 190.934 216.272 191.675 215.086C192.522 213.901 193.951 213.254 195.963 213.146L204.061 212.661V200.374H158.644V212.661L166.267 213.308C168.596 213.416 170.131 214.062 170.872 215.248C171.613 216.326 171.984 218.212 171.984 220.907V279.272H171.19L119.262 200.374H75.9092V212.661L84.008 213.146C86.443 213.254 87.978 213.901 88.6132 215.086C89.2484 216.272 89.566 218.212 89.566 220.907V292.367C89.566 295.493 89.1955 297.649 88.4544 298.835C87.7134 299.912 86.3371 300.505 84.3256 300.613L75.9092 301.26V313.547H121.803V301.26L113.704 300.613C111.163 300.397 109.575 299.697 108.94 298.511C108.41 297.326 108.146 295.493 108.146 293.014V234.164H108.94L142.503 283.222V282.841H190.563ZM369.671 309.93H432.87L436.92 272.234H422.433C420.875 277.322 419.37 281.476 417.916 284.695C416.566 287.811 415.06 290.147 413.398 291.705C411.737 293.263 409.764 294.353 407.479 294.976C405.298 295.495 402.546 295.755 399.223 295.755H383.958V220.518C383.958 217.818 384.321 216 385.048 215.066C385.879 214.027 387.385 213.456 389.566 213.352L399.379 212.729V200.891H344.548V212.729L352.492 213.197C354.881 213.3 356.386 213.924 357.009 215.066C357.633 216.208 357.944 218.025 357.944 220.518V282.841H369.671V309.93Z" fill="black"/>
<mask id="mask0" mask-type="alpha" maskUnits="userSpaceOnUse" x="75" y="198" width="362" height="138">
<path fill-rule="evenodd" clip-rule="evenodd" d="M238.022 304.945C246.122 309.722 255.935 312.111 267.462 312.111C272.862 312.111 277.691 311.436 281.949 310.086C286.207 308.84 289.945 307.334 293.164 305.568C296.384 303.803 298.98 302.142 300.953 300.584L304.536 310.086H318.866V282.841H357.944V289.524C357.944 292.743 357.529 294.872 356.698 295.911C355.971 296.845 354.673 297.365 352.804 297.468L344.548 298.091V309.93H369.671V335.426H142.503V283.222L163.25 313.547H190.563V282.841H218.784C219.107 283.571 219.444 284.293 219.796 285.007C223.95 293.418 230.025 300.065 238.022 304.945ZM249.775 282.841C249.854 282.94 249.935 283.039 250.016 283.138C252.924 286.564 256.402 289.161 260.453 290.926C264.606 292.691 269.176 293.574 274.16 293.574C277.276 293.574 280.028 293.366 282.416 292.951C284.908 292.536 287.141 291.965 289.114 291.238C291.191 290.407 293.009 289.42 294.566 288.278V282.841H318.866V275.661C318.866 272.753 319.23 270.78 319.957 269.741C320.684 268.599 322.034 267.924 324.007 267.716L330.549 267.249V255.255H280.547V267.249L288.959 267.56C291.451 267.664 293.009 268.339 293.632 269.586C294.255 270.832 294.566 272.701 294.566 275.193V282.841H249.775ZM249.775 282.841C246.984 279.363 244.832 275.101 243.318 270.053C241.76 264.86 240.981 258.785 240.981 251.828C240.981 245.908 241.656 240.612 243.006 235.939C244.46 231.266 246.485 227.372 249.081 224.256C251.781 221.037 255.052 218.597 258.895 216.935C262.841 215.274 267.306 214.443 272.291 214.443C277.691 214.443 282.416 215.222 286.466 216.779C290.62 218.337 294.203 220.881 297.214 224.412C300.226 227.943 302.874 232.72 305.159 238.743L318.243 236.095L311.701 198.71H301.264L299.395 206.966C295.76 204.37 291.659 202.345 287.089 200.891C282.52 199.437 276.964 198.71 270.422 198.71C261.906 198.71 254.17 200.06 247.212 202.76C240.254 205.356 234.231 209.147 229.143 214.131C224.158 219.116 220.316 225.139 217.616 232.201C214.916 239.262 213.566 247.258 213.566 256.189C213.566 266.073 215.305 274.957 218.784 282.841H249.775ZM190.563 282.841V221.392C190.563 218.374 190.934 216.272 191.675 215.086C192.522 213.901 193.951 213.254 195.963 213.146L204.061 212.661V200.374H158.644V212.661L166.267 213.308C168.596 213.416 170.131 214.062 170.872 215.248C171.613 216.326 171.984 218.212 171.984 220.907V279.272H171.19L119.262 200.374H75.9092V212.661L84.008 213.146C86.443 213.254 87.978 213.901 88.6132 215.086C89.2484 216.272 89.566 218.212 89.566 220.907V292.367C89.566 295.493 89.1955 297.649 88.4544 298.835C87.7134 299.912 86.3371 300.505 84.3256 300.613L75.9092 301.26V313.547H121.803V301.26L113.704 300.613C111.163 300.397 109.575 299.697 108.94 298.511C108.41 297.326 108.146 295.493 108.146 293.014V234.164H108.94L142.503 283.222V282.841H190.563ZM369.671 309.93H432.87L436.92 272.234H422.433C420.875 277.322 419.37 281.476 417.916 284.695C416.566 287.811 415.06 290.147 413.398 291.705C411.737 293.263 409.764 294.353 407.479 294.976C405.298 295.495 402.546 295.755 399.223 295.755H383.958V220.518C383.958 217.818 384.321 216 385.048 215.066C385.879 214.027 387.385 213.456 389.566 213.352L399.379 212.729V200.891H344.548V212.729L352.492 213.197C354.881 213.3 356.386 213.924 357.009 215.066C357.633 216.208 357.944 218.025 357.944 220.518V282.841H369.671V309.93Z" fill="black"/>
</mask>
<g mask="url(#mask0)">
<rect x="142.503" y="282.841" width="227.169" height="40.666" fill="#FF3322"/>
</g>
</svg>
