<svg width="23" height="15" viewBox="0 0 27 19" fill="none" xmlns="http://www.w3.org/2000/svg">
<path d="M24.375 0.4375H2.625C2.1443 0.4375 1.68328 0.628459 1.34337 0.968369C1.00346 1.30828 0.8125 1.7693 0.8125 2.25V16.75C0.8125 17.2307 1.00346 17.6917 1.34337 18.0316C1.68328 18.3715 2.1443 18.5625 2.625 18.5625H24.375C24.8557 18.5625 25.3167 18.3715 25.6566 18.0316C25.9965 17.6917 26.1875 17.2307 26.1875 16.75V2.25C26.1875 1.7693 25.9965 1.30828 25.6566 0.968369C25.3167 0.628459 24.8557 0.4375 24.375 0.4375ZM22.3812 2.25L13.5 8.39437L4.61875 2.25H22.3812ZM2.625 16.75V3.07469L12.9834 10.2431C13.1351 10.3484 13.3154 10.4048 13.5 10.4048C13.6846 10.4048 13.8649 10.3484 14.0166 10.2431L24.375 3.07469V16.75H2.625Z" fill="black"/>
</svg>
