<svg width="28" height="28" viewBox="0 0 28 28" fill="none" xmlns="http://www.w3.org/2000/svg">
<path d="M9.8 0.962602C11.9875 2.05635 13.9125 3.7626 15.225 5.99385C15.925 7.1751 16.3625 8.44385 16.625 9.7126C16.975 11.4189 16.6688 13.8689 13.65 13.0376C12.0312 12.6001 10.4562 15.5314 13.475 16.3626C14.35 16.5814 11.4188 17.2814 13.65 18.5064C13.65 18.5064 11.2438 19.0751 12.7312 20.2126C13.3875 20.7376 12.6438 21.5689 12.25 21.9189C11.6375 22.4439 10.9375 22.8814 10.1937 23.3189C8.09375 24.4564 5.775 24.9814 3.5 24.9376C7.56875 27.6064 13.0375 27.9564 17.6312 25.4189C24.1062 21.8314 26.425 13.8251 22.7937 7.5251C20.125 2.84385 14.9187 0.437602 9.8 0.962602Z" fill="#FFE8A6"/>
<path d="M18.7695 20.7811C18.1132 20.6061 17.457 20.9561 17.282 21.6124C17.107 22.2249 17.5007 22.8812 18.1132 23.0562C18.7257 23.2312 19.4257 22.8812 19.6007 22.2249C19.7757 21.6124 19.4257 20.9561 18.7695 20.7811Z" fill="#F4DC9F"/>
<path d="M20.5195 6.5624C19.8632 6.3874 19.207 6.7374 19.032 7.39365C18.857 8.00615 19.2507 8.6624 19.8632 8.8374C20.5195 9.0124 21.1757 8.6624 21.3507 8.00615C21.5257 7.39365 21.1757 6.7374 20.5195 6.5624Z" fill="#F4DC9F"/>
<path d="M14.9193 21.2186C13.8693 20.9123 12.7318 21.5248 12.4693 22.5748C12.1631 23.6248 12.7756 24.7186 13.8693 24.9811C14.9631 25.2436 16.0568 24.6748 16.3193 23.6248C16.6256 22.6186 16.0131 21.5248 14.9193 21.2186Z" fill="#F4DC9F"/>
<path d="M22.3568 13.6061C21.2193 13.2999 20.0818 13.9561 19.7755 15.0499C19.4693 16.1436 20.1255 17.2811 21.2193 17.5874C22.3568 17.8936 23.4943 17.2374 23.8005 16.1436C24.1505 15.0499 23.4943 13.9124 22.3568 13.6061Z" fill="#F4DC9F"/>
<path d="M10.6317 24.1062C10.1067 23.9749 9.58165 24.2812 9.4504 24.7624C9.31915 25.2437 9.6254 25.7687 10.1067 25.8999C10.6317 26.0312 11.1567 25.7249 11.2879 25.2437C11.4192 24.8062 11.1129 24.2812 10.6317 24.1062Z" fill="#F4DC9F"/>
<path d="M16.8435 3.23741C16.4498 3.14991 16.0123 3.36866 15.9248 3.76241C15.7935 4.15616 16.056 4.54991 16.4498 4.68116C16.8435 4.76866 17.281 4.54991 17.3685 4.15616C17.4998 3.76241 17.2373 3.32491 16.8435 3.23741Z" fill="#F4DC9F"/>
<path d="M19.9066 18.2437C19.7754 18.4624 19.5129 18.6374 19.2941 18.7687C19.0316 18.8999 18.7691 18.9874 18.5066 19.0311C17.9816 19.1624 17.4129 19.1624 16.8441 19.1624C16.2754 19.1186 15.7504 19.0749 15.2254 18.9436C14.7004 18.8124 14.1754 18.6812 13.6504 18.4624C14.7441 18.5499 15.7941 18.6812 16.8441 18.7249C17.3691 18.7687 17.8941 18.7687 18.4191 18.7249C18.6816 18.6812 18.9441 18.6812 19.2066 18.5937C19.4691 18.5499 19.6879 18.4187 19.9066 18.2437Z" fill="#7F5629"/>
<path d="M16.3621 20.475C15.7934 20.5187 15.3121 20.4312 14.7871 20.3875C14.5246 20.3437 14.2621 20.3437 14.0434 20.3437C13.7809 20.3437 13.5621 20.3437 13.2559 20.3875C13.4309 20.1687 13.7371 20.0375 13.9996 19.9937C14.2621 19.95 14.5684 19.95 14.8309 19.95C15.3996 20.0375 15.9246 20.1687 16.3621 20.475Z" fill="#B79918"/>
<path d="M15.0936 16.4062C14.9623 16.3187 14.8311 16.2749 14.7436 16.2312L14.4373 16.1874C14.2186 16.0999 13.9561 16.0124 13.7373 15.7937C14.0436 15.7062 14.2623 15.7062 14.5686 15.7499C14.6998 15.7937 14.8311 15.8374 14.9623 15.9687C15.0498 16.0999 15.1373 16.2749 15.0936 16.4062Z" fill="#7F5629"/>
<path d="M19.2942 10.0626C20.4755 10.3689 21.3505 11.6376 21.0442 12.8189C20.6942 14.0001 19.2942 14.6126 18.113 14.3064C16.9317 14.0001 17.1505 13.0376 17.5005 11.8564C17.8067 10.6751 18.0692 9.75638 19.2942 10.0626Z" fill="white"/>
<path d="M18.7248 10.7624C19.4686 10.9812 20.0811 11.7687 19.9061 12.5124C19.7311 13.2562 18.7248 13.6062 17.9811 13.4312C17.2373 13.2124 17.4123 12.6437 17.5873 11.8999C17.8061 11.1562 17.9811 10.5437 18.7248 10.7624Z" fill="#7F5629"/>
<path d="M16.2314 15.3999C16.5377 15.8374 16.9752 16.0562 17.4127 16.2749L18.7689 16.9312C19.2064 17.1499 19.6877 17.4124 20.0814 17.7624C20.3002 17.9374 20.4752 18.1562 20.6064 18.3749C20.7377 18.6374 20.7814 18.8999 20.6939 19.1624C20.6502 18.6374 20.2564 18.2874 19.8627 18.0249C19.4689 17.7624 18.9877 17.5437 18.5502 17.2812C18.1127 17.0624 17.6314 16.7999 17.1939 16.4937C16.8439 16.3187 16.4064 15.9249 16.2314 15.3999Z" fill="#B79918"/>
</svg>
