<svg width="25" height="25" viewBox="0 0 25 25" fill="none" xmlns="http://www.w3.org/2000/svg">
<path d="M5.33366 17.5L3.66699 21.375L7.54199 19.7083C6.66699 19.0833 5.91699 18.3333 5.33366 17.5Z" fill="#FFCE31"/>
<path d="M19.6667 7.5L21.3333 3.625L17.5 5.29167C18.3333 5.91667 19.0833 6.66667 19.6667 7.5Z" fill="#FFCE31"/>
<path d="M3.91667 10.9583L0 12.4999L3.91667 14.0416C3.79167 13.5416 3.75 13.0416 3.75 12.4999C3.75 11.9583 3.79167 11.4583 3.91667 10.9583Z" fill="#FFCE31"/>
<path d="M21.083 14.0416L24.9997 12.4999L21.083 10.9583C21.1663 11.4583 21.2497 11.9999 21.2497 12.4999C21.2497 13.0416 21.208 13.5416 21.083 14.0416Z" fill="#FFCE31"/>
<path d="M7.5 5.33341L3.625 3.66675L5.29167 7.54175C5.91667 6.66675 6.66667 5.91675 7.5 5.33341Z" fill="#FFCE31"/>
<path d="M17.5 19.6668L21.375 21.3335L19.7083 17.4585C19.0833 18.3335 18.3333 19.0835 17.5 19.6668Z" fill="#FFCE31"/>
<path d="M14.0413 3.91667L12.4997 0L10.958 3.91667C11.458 3.83333 11.9997 3.75 12.4997 3.75C12.9997 3.75 13.5413 3.79167 14.0413 3.91667Z" fill="#FFCE31"/>
<path d="M10.958 21.0833L12.4997 24.9999L14.0413 21.0833C13.5413 21.2083 13.0413 21.2499 12.4997 21.2499C11.958 21.2499 11.458 21.2083 10.958 21.0833Z" fill="#FFCE31"/>
<path d="M12.4997 20.4166C16.8719 20.4166 20.4163 16.8722 20.4163 12.4999C20.4163 8.12766 16.8719 4.58325 12.4997 4.58325C8.12742 4.58325 4.58301 8.12766 4.58301 12.4999C4.58301 16.8722 8.12742 20.4166 12.4997 20.4166Z" fill="#FFCE31"/>
</svg>
