<svg width="26" height="20" viewBox="0 0 27 27" fill="none" xmlns="http://www.w3.org/2000/svg">
<path d="M11.7527 6.54008L7.66495 1.82154C7.1937 1.27779 6.32975 1.2802 5.78237 1.82879L2.42079 5.19641C1.42029 6.19812 1.13391 7.68558 1.7127 8.8782C5.17049 16.0375 10.9444 21.8196 18.0989 25.2874C19.2903 25.8662 20.7766 25.5798 21.7771 24.5781L25.1701 21.179C25.7199 20.6292 25.7211 19.7605 25.1725 19.2892L20.4358 15.2232C19.9404 14.7978 19.1707 14.8534 18.6741 15.3512L17.0259 17.0018C16.9415 17.0903 16.8305 17.1486 16.7098 17.1678C16.589 17.187 16.4654 17.166 16.3577 17.1082C13.6637 15.5568 11.4289 13.3191 9.88104 10.623C9.82307 10.5152 9.80208 10.3913 9.82129 10.2704C9.8405 10.1495 9.89884 10.0382 9.98737 9.95362L11.6307 8.30908C12.1285 7.80883 12.1829 7.03549 11.7527 6.53887V6.54008Z" stroke="black" stroke-width="2" stroke-linecap="round" stroke-linejoin="round"/>
</svg>
