<svg width="27" height="27" viewBox="0 0 27 27" fill="none" xmlns="http://www.w3.org/2000/svg">
<g clip-path="url(#clip0)">
<path d="M25.5098 27.0001C26.3327 27.0001 27 26.3329 27 25.5099V1.49017C27 0.66709 26.3327 0 25.5098 0H1.49017C0.666984 0 0 0.66709 0 1.49017V25.5099C0 26.3329 0.666984 27.0001 1.49017 27.0001H25.5098Z" fill="#395185"/>
<path d="M14.8291 23.2758V14.3574H17.9651L18.4346 10.8818H14.8291V8.66261C14.8291 7.65631 15.1219 6.97054 16.6336 6.97054L18.5617 6.96973V3.86113C18.2281 3.81876 17.0836 3.72412 15.7522 3.72412C12.9723 3.72412 11.0693 5.34387 11.0693 8.31851V10.8818H7.92529V14.3574H11.0693V23.2758H14.8291Z" fill="white"/>
</g>
<defs>
<clipPath id="clip0">
<rect width="27" height="27" rx="13.5" fill="white"/>
</clipPath>
</defs>
</svg>
