<svg width="28" height="27" viewBox="0 0 28 27" fill="none" xmlns="http://www.w3.org/2000/svg">
<g clip-path="url(#clip0)">
<path d="M13.8135 0C6.35757 0 0.313477 6.0441 0.313477 13.5C0.313477 20.9559 6.35757 27 13.8135 27C21.2694 27 27.3135 20.9559 27.3135 13.5C27.3135 6.0441 21.2694 0 13.8135 0Z" fill="#40B3E0"/>
<path d="M20.3824 7.76565L17.9711 19.9229C17.9711 19.9229 17.6339 20.766 16.7065 20.3614L11.1422 16.0954L9.1189 15.1175L5.7129 13.9708C5.7129 13.9708 5.19019 13.7854 5.13957 13.3807C5.08894 12.976 5.72977 12.7569 5.72977 12.7569L19.2694 7.44545C19.2694 7.44545 20.3823 6.9565 20.3823 7.76587" fill="white"/>
<path d="M10.7146 19.7863C10.7146 19.7863 10.5522 19.7711 10.3497 19.1303C10.1475 18.4896 9.1189 15.1173 9.1189 15.1173L17.2967 9.92404C17.2967 9.92404 17.7689 9.63737 17.752 9.92404C17.752 9.92404 17.8363 9.97466 17.5833 10.2107C17.3305 10.4468 11.1592 15.9942 11.1592 15.9942" fill="#D2E5F1"/>
<path d="M13.2757 17.7309L11.0749 19.7375C11.0749 19.7375 10.9028 19.8681 10.7146 19.7862L11.1361 16.059" fill="#B5CFE4"/>
</g>
<defs>
<clipPath id="clip0">
<rect width="27" height="27" fill="white" transform="translate(0.313477)"/>
</clipPath>
</defs>
</svg>
