<svg width="28" height="28" viewBox="0 0 28 28" fill="none" xmlns="http://www.w3.org/2000/svg">
<ellipse cx="13.6567" cy="13.9048" rx="13.6567" ry="13.9048" fill="#2787F5"/>
<path fill-rule="evenodd" clip-rule="evenodd" d="M21.643 9.6694C21.7588 9.26705 21.643 8.97083 21.0885 8.97083H19.2575C18.7916 8.97083 18.5768 9.22653 18.4603 9.50875C18.4603 9.50875 17.5291 11.8639 16.2101 13.3936C15.7833 13.8372 15.5894 13.978 15.3564 13.978C15.2399 13.978 15.0648 13.8372 15.0648 13.4342V9.6694C15.0648 9.186 14.9365 8.97083 14.5487 8.97083H11.6694C11.3785 8.97083 11.2034 9.19484 11.2034 9.4078C11.2034 9.86541 11.8633 9.97152 11.9309 11.2596V14.0583C11.9309 14.6721 11.8242 14.7834 11.5913 14.7834C10.9705 14.7834 9.46037 12.4173 8.56408 9.70993C8.3904 9.18305 8.21463 8.97083 7.7466 8.97083H5.91425C5.39112 8.97083 5.2865 9.22653 5.2865 9.50875C5.2865 10.0113 5.90728 12.5079 8.17766 15.8099C9.69125 18.0648 11.8221 19.2873 13.7633 19.2873C14.9274 19.2873 15.0711 19.0161 15.0711 18.5482V16.8438C15.0711 16.3007 15.1813 16.1923 15.5503 16.1923C15.8223 16.1923 16.2876 16.3338 17.3743 17.4207C18.6158 18.7096 18.8202 19.2873 19.5191 19.2873H21.3501C21.8732 19.2873 22.1354 19.0161 21.9848 18.4796C21.8188 17.9461 21.2259 17.1717 20.4398 16.2528C20.0129 15.7296 19.3726 15.1659 19.178 14.8836C18.9067 14.5218 18.9841 14.3604 19.178 14.0384C19.178 14.0384 21.41 10.7769 21.6423 9.6694H21.643Z" fill="white"/>
</svg>
